<?xml version="1.0" encoding="utf-8"?>
<!-- Generator: Adobe Illustrator 17.0.0, SVG Export Plug-In . SVG Version: 6.00 Build 0)  -->
<!DOCTYPE svg PUBLIC "-//W3C//DTD SVG 1.1//EN" "http://www.w3.org/Graphics/SVG/1.1/DTD/svg11.dtd">
<svg version="1.1" id="Layer_1" xmlns="http://www.w3.org/2000/svg" xmlns:xlink="http://www.w3.org/1999/xlink" x="0px" y="0px"
	 width="56.693px" height="56.693px" viewBox="0 0 56.693 56.693" enable-background="new 0 0 56.693 56.693" xml:space="preserve">
<path d="M31.125,51.683c-0.114,0-0.226-0.003-0.338-0.008h0c-0.071,0.005-0.146,0.008-0.221,0.008c-2.618,0-4.299-1.171-5.924-2.304
	c-1.122-0.782-2.181-1.52-3.429-1.724c-0.609-0.099-1.215-0.15-1.8-0.15c-1.055,0-1.887,0.161-2.495,0.278
	c-0.369,0.071-0.688,0.132-0.93,0.132c-0.253,0-0.527-0.054-0.646-0.455c-0.104-0.348-0.178-0.684-0.25-1.01
	c-0.186-0.838-0.317-1.354-0.674-1.408c-4.153-0.632-5.342-1.495-5.607-2.107c-0.038-0.087-0.059-0.175-0.064-0.262
	c-0.013-0.235,0.155-0.443,0.391-0.481c6.384-1.036,9.247-7.469,9.366-7.742c0.003-0.008,0.007-0.015,0.01-0.022
	c0.391-0.781,0.467-1.458,0.228-2.014c-0.438-1.018-1.867-1.465-2.813-1.761c-0.231-0.072-0.451-0.14-0.624-0.208
	c-1.887-0.736-2.044-1.491-1.97-1.875c0.126-0.656,1.015-1.113,1.734-1.113c0.197,0,0.371,0.034,0.517,0.102
	c0.849,0.392,1.614,0.591,2.274,0.591c0.912,0,1.31-0.378,1.359-0.427c-0.023-0.426-0.052-0.871-0.081-1.33
	c-0.19-2.975-0.426-6.673,0.529-8.783c2.862-6.326,8.931-6.817,10.723-6.817c0.046,0,0.786-0.008,0.786-0.008l0.106,0
	c1.796,0,7.878,0.492,10.742,6.822c0.955,2.112,0.719,5.812,0.528,8.785l-0.008,0.129c-0.026,0.414-0.052,0.816-0.073,1.202
	c0.046,0.046,0.412,0.393,1.239,0.425h0.001c0.628-0.024,1.351-0.221,2.143-0.587c0.232-0.107,0.49-0.129,0.666-0.129
	c0.268,0,0.54,0.051,0.766,0.144l0.014,0.006c0.641,0.224,1.061,0.667,1.07,1.13c0.008,0.436-0.329,1.091-1.985,1.736
	c-0.172,0.066-0.391,0.135-0.623,0.208c-0.947,0.296-2.375,0.743-2.813,1.761c-0.239,0.555-0.163,1.232,0.228,2.013
	c0.003,0.008,0.007,0.015,0.01,0.023c0.119,0.273,2.979,6.703,9.366,7.741c0.236,0.038,0.404,0.246,0.391,0.481
	c-0.005,0.088-0.027,0.177-0.065,0.263c-0.263,0.607-1.451,1.469-5.605,2.101c-0.339,0.051-0.471,0.487-0.673,1.402
	c-0.074,0.333-0.148,0.66-0.251,1.003c-0.088,0.298-0.277,0.438-0.594,0.438h-0.052c-0.22,0-0.533-0.039-0.93-0.116
	c-0.703-0.136-1.492-0.261-2.495-0.261c-0.586,0-1.192,0.05-1.801,0.15c-1.246,0.205-2.305,0.941-3.425,1.722
	C35.425,50.512,33.745,51.683,31.125,51.683z"/>
</svg>
